# Blender v3.0.1 OBJ File: 'uploads_files_2538811_Vending_Machine.blend'
# www.blender.org
mtllib Vending_Machine.mtl
o Cube_Cube.001
v -0.494979 0.000815 -0.277112
v 0.494979 0.000815 -0.277112
v -0.494979 0.000815 0.277112
v 0.494979 0.000815 0.277112
v -0.432155 0.000815 -0.277112
v -0.432155 1.908534 -0.277112
v -0.432155 0.000815 0.277112
v -0.432155 1.908534 0.277112
v 0.434183 1.908534 -0.277112
v 0.434183 0.000815 0.277112
v 0.434183 0.000815 -0.277112
v 0.434183 1.908534 0.277112
v -0.494979 0.022603 -0.277112
v 0.494979 0.022603 -0.277112
v 0.494979 0.022603 0.277112
v -0.494979 0.022603 0.277112
v -0.432155 0.022603 0.277112
v -0.432155 0.022603 -0.277112
v 0.434183 0.022603 0.277112
v 0.434183 0.022603 -0.277112
v 0.262051 1.908534 0.277112
v 0.262051 1.908534 -0.277112
v 0.262051 0.022603 -0.277112
v 0.262051 0.022603 0.277112
v -0.494979 1.849599 -0.277112
v 0.494979 1.849599 -0.277112
v 0.494979 1.849599 0.277112
v -0.494979 1.849599 0.277112
v -0.432155 1.849599 -0.277112
v 0.434183 1.849599 -0.277112
v 0.262051 1.849599 -0.277112
v 0.494979 0.501192 -0.277112
v 0.494979 0.501192 0.277112
v -0.494979 0.501192 0.277112
v -0.432155 0.501192 -0.277112
v 0.434183 0.501192 -0.277112
v 0.262051 0.501192 -0.277112
v -0.494979 0.501192 -0.277112
v 0.494979 0.453713 -0.277112
v 0.494979 0.453713 0.277112
v -0.494979 0.453713 0.277112
v -0.432155 0.453713 -0.277112
v 0.434183 0.453713 -0.277112
v 0.262051 0.453713 -0.277112
v -0.494979 0.453713 -0.277112
v 0.494979 0.106488 -0.277112
v 0.494979 0.106488 0.277112
v -0.494979 0.106488 0.277112
v -0.432155 0.106488 0.277112
v -0.432155 0.106488 -0.277112
v 0.434183 0.106488 0.277112
v 0.434183 0.106488 -0.277112
v 0.262051 0.106488 -0.277112
v 0.262051 0.106488 0.277112
v -0.494979 0.106488 -0.277112
v -0.432155 1.908534 0.305617
v 0.262051 1.908534 0.305617
v 0.434183 1.908534 0.305617
v 0.494979 1.849599 0.305617
v -0.494979 1.849599 0.305617
v 0.434183 1.849599 0.305617
v 0.494979 0.501192 0.305617
v -0.494979 0.501192 0.305617
v 0.494979 0.453713 0.305617
v -0.494979 0.453713 0.305617
v -0.432155 0.453713 0.305617
v 0.262051 0.453713 0.305617
v 0.494979 0.106488 0.305617
v -0.494979 0.106488 0.305617
v -0.432155 0.106488 0.305617
v 0.434183 0.106488 0.305617
v 0.262051 0.106488 0.305617
v 0.325525 1.908534 -0.277112
v 0.325525 0.022603 -0.277112
v 0.325525 1.908534 0.277112
v 0.325525 0.022603 0.277112
v 0.325525 1.849599 -0.277112
v 0.325525 0.501192 -0.277112
v 0.325525 0.453713 -0.277112
v 0.325525 0.106488 -0.277112
v 0.325525 0.106488 0.277112
v 0.325525 1.908534 0.305617
v 0.325525 1.849599 0.305617
v 0.325525 0.501192 0.305617
v 0.325525 0.453713 0.305617
v 0.325525 0.106488 0.305617
v 0.472181 1.908534 -0.277112
v 0.472181 0.000815 0.277112
v 0.472181 0.000815 -0.277112
v 0.472181 1.908534 0.277112
v 0.472181 0.022603 0.277112
v 0.472181 0.022603 -0.277112
v 0.472181 1.849599 -0.277112
v 0.472181 0.501192 -0.277112
v 0.472181 0.453713 -0.277112
v 0.472181 0.106488 -0.277112
v 0.472181 0.106488 0.277112
v 0.472181 1.908534 0.305617
v 0.472181 1.849599 0.305617
v 0.472181 0.501192 0.305617
v 0.472181 0.453713 0.305617
v 0.472181 0.106488 0.305617
v -0.494979 0.919934 -0.277112
v 0.494979 0.919934 -0.277112
v 0.494979 0.919934 0.277112
v -0.494979 0.919934 0.277112
v -0.432155 0.919934 0.277112
v -0.432155 0.919934 -0.277112
v 0.434183 0.919934 -0.277112
v 0.262051 0.919934 -0.277112
v 0.262051 0.919934 0.277112
v -0.432155 0.919934 0.050033
v 0.262051 0.919934 0.050033
v 0.494979 0.919934 0.305617
v -0.494979 0.919934 0.305617
v -0.432155 0.919934 0.305617
v 0.434183 0.919934 0.305617
v 0.262051 0.919934 0.305617
v 0.325525 0.919934 0.305617
v 0.325525 0.919934 -0.277112
v 0.472181 0.919934 0.305617
v 0.472181 0.919934 -0.277112
v -0.494979 1.777262 -0.277112
v 0.494979 1.777262 -0.277112
v 0.494979 1.777262 0.277112
v -0.494979 1.777262 0.277112
v -0.432155 1.777262 0.277112
v -0.432155 1.777262 -0.277112
v 0.434183 1.777262 -0.277112
v 0.262051 1.777262 -0.277112
v 0.262051 1.777262 0.277112
v -0.432155 1.777262 0.050033
v 0.262051 1.777262 0.050033
v 0.494979 1.777262 0.305617
v -0.494979 1.777262 0.305617
v -0.432155 1.777262 0.305617
v 0.434183 1.777262 0.305617
v 0.262051 1.777262 0.305617
v 0.325525 1.777262 0.305617
v 0.325525 1.777262 -0.277112
v 0.472181 1.777262 0.305617
v 0.472181 1.777262 -0.277112
v 0.494979 0.570315 -0.277112
v 0.494979 0.570315 0.277112
v -0.494979 0.570315 0.277112
v -0.432155 0.570315 0.277112
v -0.432155 0.570315 -0.277112
v 0.434183 0.570315 -0.277112
v 0.262051 0.570315 -0.277112
v 0.262051 0.570315 0.277112
v -0.432155 0.570315 0.050033
v 0.262051 0.570315 0.050033
v 0.494979 0.570315 0.305617
v -0.494979 0.570315 0.305617
v -0.432155 0.570315 0.305617
v 0.434183 0.570315 0.305617
v 0.262051 0.570315 0.305617
v 0.325525 0.570315 0.305617
v 0.325525 0.570315 -0.277112
v 0.472181 0.570315 0.305617
v 0.472181 0.570315 -0.277112
v -0.494979 0.570315 -0.277112
v -0.494979 0.428721 -0.277112
v 0.494979 0.428721 -0.277112
v 0.494979 0.428721 0.277112
v -0.494979 0.428721 0.277112
v -0.432155 0.428721 -0.277112
v 0.434183 0.428721 -0.277112
v 0.262051 0.428721 -0.277112
v 0.494979 0.428721 0.305617
v -0.494979 0.428721 0.305617
v -0.432155 0.428721 0.305617
v 0.434183 0.428721 0.305617
v 0.262051 0.428721 0.305617
v 0.325525 0.428721 0.305617
v 0.325525 0.428721 -0.277112
v 0.472181 0.428721 0.305617
v 0.472181 0.428721 -0.277112
v 0.434183 0.570315 0.298930
v 0.434183 0.501192 0.298930
v 0.472181 0.501192 0.298930
v 0.434183 0.453713 0.298930
v 0.472181 0.453713 0.298930
v 0.325525 0.501192 0.298930
v 0.325525 0.453713 0.298930
v 0.325525 0.570315 0.298930
v 0.472181 0.570315 0.298930
v 0.434183 0.428721 0.298930
v 0.325525 0.428721 0.298930
v 0.472181 0.428721 0.298930
v 0.434183 1.777262 0.314792
v 0.434183 0.919934 0.314792
v 0.325525 1.777262 0.314792
v 0.325525 0.919934 0.314792
v 0.472181 1.777262 0.314792
v 0.472181 0.919934 0.314792
v 0.494979 0.146520 -0.277112
v 0.494979 0.146520 0.277112
v -0.494979 0.146520 0.277112
v -0.432155 0.146520 -0.277112
v 0.434183 0.146520 -0.277112
v 0.262051 0.146520 -0.277112
v 0.494979 0.146520 0.305617
v -0.494979 0.146520 0.305617
v -0.432155 0.146520 0.305617
v 0.434183 0.146520 0.305617
v 0.262051 0.146520 0.305617
v 0.325525 0.146520 0.305617
v 0.325525 0.146520 -0.277112
v 0.472181 0.146520 0.305617
v 0.472181 0.146520 -0.277112
v -0.494979 0.146520 -0.277112
v -0.494979 0.217071 -0.277112
v -0.494979 0.287621 -0.277112
v -0.494979 0.358171 -0.277112
v 0.494979 0.358171 -0.277112
v 0.494979 0.287621 -0.277112
v 0.494979 0.217071 -0.277112
v 0.494979 0.358171 0.277112
v 0.494979 0.287621 0.277112
v 0.494979 0.217071 0.277112
v -0.494979 0.358171 0.277112
v -0.494979 0.287621 0.277112
v -0.494979 0.217071 0.277112
v -0.432155 0.358171 -0.277112
v -0.432155 0.287621 -0.277112
v -0.432155 0.217071 -0.277112
v 0.434183 0.358171 -0.277112
v 0.434183 0.287621 -0.277112
v 0.434183 0.217071 -0.277112
v 0.262051 0.358171 -0.277112
v 0.262051 0.287621 -0.277112
v 0.262051 0.217071 -0.277112
v 0.494979 0.358171 0.305617
v 0.494979 0.287621 0.305617
v 0.494979 0.217071 0.305617
v -0.494979 0.358171 0.305617
v -0.494979 0.287621 0.305617
v -0.494979 0.217071 0.305617
v -0.432155 0.358171 0.305617
v -0.432155 0.287621 0.305617
v -0.432155 0.217071 0.305617
v 0.434183 0.358171 0.305617
v 0.434183 0.287621 0.305617
v 0.434183 0.217071 0.305617
v 0.262051 0.358171 0.305617
v 0.262051 0.287621 0.305617
v 0.262051 0.217071 0.305617
v 0.325525 0.358171 0.305617
v 0.325525 0.287621 0.305617
v 0.325525 0.217071 0.305617
v 0.325525 0.358171 -0.277112
v 0.325525 0.287621 -0.277112
v 0.325525 0.217071 -0.277112
v 0.472181 0.358171 0.305617
v 0.472181 0.287621 0.305617
v 0.472181 0.217071 0.305617
v 0.472181 0.358171 -0.277112
v 0.472181 0.287621 -0.277112
v 0.472181 0.217071 -0.277112
v 0.262051 0.453713 0.282749
v -0.432155 0.453713 0.282749
v -0.432155 0.428721 0.282749
v 0.262051 0.428721 0.282749
v -0.432155 0.217071 0.296746
v -0.432155 0.146520 0.282749
v 0.262051 0.217071 0.296746
v 0.262051 0.146520 0.282749
v -0.432155 0.358171 0.296746
v -0.432155 0.287621 0.300873
v 0.262051 0.358171 0.296746
v 0.262051 0.287621 0.300873
v -0.432155 1.840823 0.277112
v -0.423378 1.849599 0.277112
v -0.429584 1.847028 0.277112
v 0.253274 1.849599 0.277112
v 0.262051 1.840823 0.277112
v 0.259480 1.847028 0.277112
v -0.432155 0.509969 0.277112
v -0.423378 0.501192 0.277112
v -0.429584 0.503763 0.277112
v 0.262051 0.509969 0.277112
v 0.253274 0.501192 0.277112
v 0.259480 0.503763 0.277112
v 0.262051 1.840823 0.050033
v 0.253274 1.849599 0.050033
v 0.259480 1.847028 0.050033
v -0.423378 1.849599 0.050033
v -0.432155 1.840823 0.050033
v -0.429584 1.847028 0.050033
v -0.432155 0.509969 0.050033
v -0.423378 0.501192 0.050033
v -0.429584 0.503763 0.050033
v 0.253274 0.501192 0.050033
v 0.262051 0.509969 0.050033
v 0.259480 0.503763 0.050033
v -0.432155 1.840823 0.305617
v -0.423378 1.849599 0.305617
v -0.432155 1.858375 0.305617
v -0.440931 1.849599 0.305617
v -0.429584 1.847028 0.305617
v 0.253274 1.849599 0.305617
v 0.262051 1.840823 0.305617
v 0.270827 1.849599 0.305617
v 0.262051 1.858375 0.305617
v 0.259480 1.847028 0.305617
v -0.423378 0.501192 0.305617
v -0.432155 0.509969 0.305617
v -0.440931 0.501192 0.305617
v -0.432155 0.492416 0.305617
v -0.429584 0.503763 0.305617
v 0.262051 0.509969 0.305617
v 0.253274 0.501192 0.305617
v 0.262051 0.492416 0.305617
v 0.270827 0.501192 0.305617
v 0.259480 0.503763 0.305617
v -0.494979 1.901080 -0.277112
v -0.487524 1.908534 -0.277112
v 0.487524 1.908534 -0.277112
v 0.494979 1.901080 -0.277112
v -0.494979 1.901080 0.277112
v -0.487524 1.908534 0.277112
v 0.487524 1.908534 0.277112
v 0.494979 1.901080 0.277112
v -0.487524 1.908534 0.305617
v -0.494979 1.901080 0.305617
v 0.494979 1.901080 0.305617
v 0.487524 1.908534 0.305617
v 0.262051 1.849599 0.283774
v -0.432155 1.849599 0.283774
v -0.432155 0.501192 0.283774
v 0.262051 0.501192 0.283774
vt 0.511101 0.264416
vt 0.518088 0.264416
vt 0.518088 0.269811
vt 0.511101 0.269811
vt 0.485401 0.293061
vt 0.485395 0.297774
vt 0.484581 0.297775
vt 0.484186 0.297180
vt 0.484191 0.293062
vt 0.582072 0.132804
vt 0.774624 0.132804
vt 0.774624 0.132804
vt 0.582072 0.132804
vt 0.511101 0.159514
vt 0.518088 0.159514
vt 0.438937 0.054497
vt 0.438937 0.054497
vt 0.403084 0.054497
vt 0.403084 0.054497
vt 0.395052 0.264416
vt 0.395052 0.159515
vt 0.396988 0.159515
vt 0.396988 0.264416
vt 0.423503 0.264416
vt 0.423503 0.159514
vt 0.283798 0.260596
vt 0.289940 0.260537
vt 0.289963 0.265600
vt 0.283823 0.265660
vt 0.283328 0.161897
vt 0.289483 0.161868
vt 0.260968 0.186739
vt 0.271163 0.186573
vt 0.271163 0.186573
vt 0.260968 0.186739
vt 0.955033 0.054497
vt 0.955033 0.054497
vt 0.933348 0.054497
vt 0.933348 0.054497
vt 0.401783 0.159515
vt 0.401783 0.264416
vt 0.493179 0.293053
vt 0.493178 0.297766
vt 0.487412 0.297772
vt 0.487417 0.293059
vt 0.582049 0.096941
vt 0.582019 0.048174
vt 0.438937 0.102830
vt 0.832095 0.048174
vt 0.832563 0.096941
vt 0.822037 0.096941
vt 0.821588 0.048174
vt 0.536078 0.147507
vt 0.536085 0.149198
vt 0.532807 0.149189
vt 0.532801 0.147499
vt 0.774354 0.096941
vt 0.835114 0.102830
vt 0.508013 0.258455
vt 0.505471 0.258480
vt 0.505489 0.160871
vt 0.508037 0.160859
vt 0.564646 0.096941
vt 0.564646 0.048174
vt 0.503308 0.163282
vt 0.500897 0.163243
vt 0.500234 0.255245
vt 0.502645 0.255284
vt 0.485565 0.147376
vt 0.485563 0.149068
vt 0.484371 0.149065
vt 0.484373 0.147373
vt 0.791937 0.096941
vt 0.871338 0.102830
vt 0.933348 0.102830
vt 0.533322 0.293013
vt 0.533338 0.297721
vt 0.496546 0.297762
vt 0.496546 0.293050
vt 0.445614 0.250836
vt 0.357761 0.253517
vt 0.357189 0.209309
vt 0.445003 0.206622
vt 0.415494 0.264416
vt 0.415494 0.159515
vt 0.423503 0.269811
vt 0.533301 0.287298
vt 0.496546 0.287329
vt 0.493181 0.287332
vt 0.487422 0.287337
vt 0.441346 0.259092
vt 0.449462 0.259014
vt 0.449467 0.264037
vt 0.441352 0.264117
vt 0.536624 0.287295
vt 0.536646 0.293010
vt 0.460341 0.256832
vt 0.319050 0.261142
vt 0.319050 0.261142
vt 0.460341 0.256832
vt 0.298563 0.260455
vt 0.298125 0.161828
vt 0.401783 0.269811
vt 0.396988 0.269811
vt 0.306712 0.160093
vt 0.298707 0.159963
vt 0.298044 0.251965
vt 0.306049 0.252095
vt 0.485407 0.287338
vt 0.484198 0.287339
vt 0.485525 0.182677
vt 0.485521 0.186393
vt 0.484324 0.186391
vt 0.484329 0.182675
vt 0.453187 0.162469
vt 0.447933 0.162384
vt 0.447269 0.254386
vt 0.452524 0.254471
vt 0.564646 0.132804
vt 0.564646 0.132804
vt 0.455032 0.258961
vt 0.449357 0.161130
vt 0.454940 0.161104
vt 0.792229 0.132804
vt 0.822368 0.132804
vt 0.822368 0.132804
vt 0.792229 0.132804
vt 0.536216 0.182765
vt 0.536230 0.186476
vt 0.532940 0.186470
vt 0.532927 0.182759
vt 0.298044 0.251965
vt 0.306049 0.252095
vt 0.493219 0.182691
vt 0.493218 0.186405
vt 0.487516 0.186396
vt 0.487519 0.182681
vt 0.496549 0.186411
vt 0.496549 0.182697
vt 0.415494 0.269811
vt 0.532920 0.180813
vt 0.496549 0.180749
vt 0.493220 0.180743
vt 0.487521 0.180733
vt 0.455037 0.263982
vt 0.536208 0.180819
vt 0.474431 0.183261
vt 0.464752 0.183418
vt 0.465535 0.235877
vt 0.475178 0.235499
vt 0.457963 0.258933
vt 0.457877 0.161091
vt 0.490999 0.258618
vt 0.495676 0.258573
vt 0.495677 0.263584
vt 0.491000 0.263630
vt 0.455953 0.162514
vt 0.455290 0.254516
vt 0.485527 0.180729
vt 0.484331 0.180727
vt 0.439423 0.194324
vt 0.447281 0.194161
vt 0.447960 0.236792
vt 0.440124 0.237100
vt 0.439423 0.194324
vt 0.447281 0.194161
vt 0.273965 0.197770
vt 0.282243 0.197598
vt 0.283415 0.243260
vt 0.275162 0.243584
vt 0.485556 0.155608
vt 0.484362 0.155605
vt 0.491614 0.163092
vt 0.490950 0.255094
vt 0.495674 0.160916
vt 0.536110 0.155729
vt 0.532830 0.155721
vt 0.832907 0.132804
vt 0.493232 0.149088
vt 0.493229 0.155627
vt 0.487544 0.155613
vt 0.487550 0.149074
vt 0.496550 0.155634
vt 0.496550 0.149097
vt 0.798297 0.878023
vt 0.798502 0.903219
vt 0.780411 0.903219
vt 0.780250 0.881775
vt 0.782721 0.878023
vt 0.582517 0.847097
vt 0.582534 0.874271
vt 0.580037 0.878023
vt 0.564646 0.878023
vt 0.564646 0.847097
vt 0.840059 0.878023
vt 0.840301 0.903219
vt 0.829471 0.903219
vt 0.829239 0.878023
vt 0.798045 0.847097
vt 0.780194 0.874271
vt 0.779989 0.847097
vt 0.579728 0.301549
vt 0.582179 0.305301
vt 0.582195 0.331100
vt 0.564646 0.331100
vt 0.564646 0.301549
vt 0.839763 0.847097
vt 0.828954 0.847097
vt 0.846552 0.878023
vt 0.846768 0.900032
vt 0.844674 0.903219
vt 0.775739 0.281250
vt 0.775863 0.297797
vt 0.773442 0.301549
vt 0.584626 0.301549
vt 0.582175 0.297797
vt 0.582164 0.281250
vt 0.793603 0.301549
vt 0.793844 0.331100
vt 0.776113 0.331100
vt 0.775919 0.305301
vt 0.778340 0.301549
vt 0.834810 0.331100
vt 0.824196 0.331100
vt 0.824196 0.331100
vt 0.834810 0.331100
vt 0.793351 0.270566
vt 0.793438 0.281250
vt 0.775658 0.270566
vt 0.834229 0.270566
vt 0.834332 0.281250
vt 0.834332 0.281250
vt 0.834229 0.270566
vt 0.775432 0.240404
vt 0.775658 0.270566
vt 0.775432 0.240404
vt 0.582158 0.270566
vt 0.564646 0.281250
vt 0.564646 0.270566
vt 0.395052 0.269811
vt 0.292346 0.251873
vt 0.292346 0.251873
vt 0.452524 0.254471
vt 0.455290 0.254516
vt 0.839231 0.132804
vt 0.839231 0.132804
vt 0.832907 0.132804
vt 0.447269 0.254386
vt 0.793844 0.331100
vt 0.834527 0.301549
vt 0.834527 0.301549
vt 0.840584 0.270566
vt 0.840689 0.281250
vt 0.840889 0.301549
vt 0.846248 0.847097
vt 0.838879 0.096941
vt 0.582539 0.881775
vt 0.582552 0.903219
vt 0.566771 0.903219
vt 0.564646 0.900032
vt 0.487552 0.147381
vt 0.838400 0.048174
vt 0.293010 0.159871
vt 0.968044 0.054497
vt 0.968044 0.054497
vt 0.487511 0.191864
vt 0.487485 0.219520
vt 0.485484 0.219518
vt 0.485515 0.191861
vt 0.841179 0.331100
vt 0.842647 0.480570
vt 0.836245 0.480570
vt 0.496549 0.191877
vt 0.496548 0.219527
vt 0.493206 0.219524
vt 0.493216 0.191872
vt 0.825575 0.480570
vt 0.795061 0.480570
vt 0.582289 0.480570
vt 0.564646 0.480570
vt 0.777236 0.480570
vt 0.408675 0.184332
vt 0.409664 0.238067
vt 0.408675 0.184332
vt 0.439620 0.254262
vt 0.400928 0.253634
vt 0.400928 0.253634
vt 0.439620 0.254262
vt 0.484283 0.219517
vt 0.484317 0.191859
vt 0.440283 0.162259
vt 0.401591 0.161632
vt 0.400196 0.259484
vt 0.399983 0.161358
vt 0.441224 0.161168
vt 0.393892 0.195273
vt 0.394730 0.238885
vt 0.536252 0.191937
vt 0.536359 0.219559
vt 0.533059 0.219557
vt 0.532960 0.191932
vt 0.400207 0.264520
vt 0.298585 0.265516
vt 0.393892 0.195273
vt 0.273965 0.197770
vt 0.282243 0.197598
vt 0.262504 0.243837
vt 0.272661 0.243439
vt 0.828954 0.847097
vt 0.839763 0.847097
vt 0.825575 0.480570
vt 0.795061 0.480570
vt 0.459348 0.185732
vt 0.318158 0.190058
vt 0.777722 0.878023
vt 0.585035 0.878023
vt 0.474431 0.183261
vt 0.464752 0.183418
vt 0.793603 0.301549
vt 0.823638 0.270566
vt 0.823638 0.270566
vt 0.487526 0.175233
vt 0.485534 0.175229
vt 0.840288 0.240404
vt 0.833940 0.240404
vt 0.496549 0.175250
vt 0.493222 0.175244
vt 0.823360 0.240404
vt 0.793105 0.240404
vt 0.463097 0.254643
vt 0.463097 0.254643
vt 0.582139 0.240404
vt 0.564646 0.240404
vt 0.582082 0.149918
vt 0.774752 0.149918
vt 0.774752 0.149918
vt 0.582082 0.149918
vt 0.484338 0.175227
vt 0.463760 0.162640
vt 0.457967 0.263954
vt 0.466232 0.258854
vt 0.466165 0.161053
vt 0.536187 0.175326
vt 0.532900 0.175320
vt 0.823924 0.301549
vt 0.823737 0.281250
vt 0.793438 0.281250
vt 0.793351 0.270566
vt 0.798045 0.847097
vt 0.836245 0.480570
vt 0.532841 0.158839
vt 0.496550 0.158754
vt 0.493228 0.158747
vt 0.487541 0.158734
vt 0.536122 0.158846
vt 0.490986 0.160938
vt 0.487183 0.163020
vt 0.486520 0.255023
vt 0.485552 0.158729
vt 0.484359 0.158726
vt 0.792369 0.149918
vt 0.833072 0.149918
vt 0.822526 0.149918
vt 0.564646 0.149918
vt 0.486520 0.255023
vt 0.490950 0.255094
vt 0.839399 0.149918
vt 0.482750 0.258696
vt 0.482752 0.263711
vt 0.466236 0.263873
vt 0.474495 0.258775
vt 0.474497 0.263792
vt 0.532861 0.164332
vt 0.496550 0.164253
vt 0.532881 0.169826
vt 0.496550 0.169752
vt 0.493226 0.164246
vt 0.487536 0.164233
vt 0.493224 0.169745
vt 0.487531 0.169733
vt 0.536144 0.164339
vt 0.536165 0.169833
vt 0.482719 0.160976
vt 0.474445 0.161014
vt 0.479376 0.162894
vt 0.478712 0.254896
vt 0.471568 0.162767
vt 0.470905 0.254769
vt 0.485546 0.164229
vt 0.484352 0.164226
vt 0.485540 0.169729
vt 0.484345 0.169727
vt 0.792614 0.180080
vt 0.774979 0.180080
vt 0.792860 0.210242
vt 0.775205 0.210242
vt 0.833361 0.180080
vt 0.822804 0.180080
vt 0.833651 0.210242
vt 0.823082 0.210242
vt 0.582164 0.281250
vt 0.775739 0.281250
vt 0.774979 0.180080
vt 0.582120 0.210242
vt 0.582101 0.180080
vt 0.582101 0.180080
vt 0.582120 0.210242
vt 0.564646 0.180080
vt 0.564646 0.210242
vt 0.478712 0.254896
vt 0.470905 0.254769
vt 0.839695 0.180080
vt 0.839992 0.210242
vt 0.582158 0.270566
vt 0.582139 0.240404
vt 0.775205 0.210242
vt 0.582536 0.876924
vt 0.582536 0.878023
vt 0.582536 0.878023
vt 0.779490 0.878023
vt 0.780222 0.878023
vt 0.780222 0.878023
vt 0.317754 0.261182
vt 0.317217 0.261198
vt 0.317217 0.261198
vt 0.317217 0.261198
vt 0.775899 0.302648
vt 0.775891 0.301549
vt 0.775891 0.301549
vt 0.272822 0.197794
vt 0.272822 0.197794
vt 0.356622 0.253552
vt 0.356622 0.253552
vt 0.357761 0.253517
vt 0.445614 0.250836
vt 0.446753 0.250802
vt 0.446753 0.250802
vt 0.259561 0.186762
vt 0.259561 0.186762
vt 0.475839 0.183238
vt 0.475839 0.183238
vt 0.462173 0.256776
vt 0.462173 0.256776
vt 0.316326 0.190114
vt 0.317217 0.261198
vt 0.448424 0.194137
vt 0.449099 0.236748
vt 0.356050 0.209344
vt 0.274023 0.243629
vt 0.476581 0.235444
vt 0.461179 0.185676
vt 0.446142 0.206587
vt 0.261101 0.243892
vt 0.448424 0.194137
vt 0.317217 0.261198
vt 0.394112 0.264416
vt 0.394112 0.159515
vt 0.519028 0.159514
vt 0.519028 0.264416
vt 0.282933 0.265669
vt 0.282909 0.260604
vt 0.291521 0.251860
vt 0.291521 0.251860
vt 0.536663 0.297122
vt 0.536270 0.297718
vt 0.775891 0.301549
vt 0.780222 0.878023
vt 0.582536 0.878023
vt 0.582177 0.301549
vt 0.779989 0.847097
vt 0.780194 0.874271
vt 0.779482 0.876924
vt 0.777722 0.878023
vt 0.585035 0.878023
vt 0.583267 0.876924
vt 0.582534 0.874271
vt 0.582517 0.847097
vt 0.773442 0.301549
vt 0.775182 0.302648
vt 0.775919 0.305301
vt 0.776113 0.331100
vt 0.582195 0.331100
vt 0.582179 0.305301
vt 0.582895 0.302648
vt 0.584626 0.301549
vt 0.777236 0.480570
vt 0.582289 0.480570
vn 0.0000 1.0000 0.0000
vn 0.0000 0.0000 -1.0000
vn 0.0000 -1.0000 0.0000
vn -1.0000 0.0000 0.0000
vn 1.0000 0.0000 -0.0000
vn 0.0000 0.0000 1.0000
vn 0.0000 0.1946 0.9809
vn 0.0000 -0.1946 0.9809
vn 0.0000 -0.0584 0.9983
vn 0.0000 0.0584 0.9983
vn 0.9239 -0.3827 0.0000
vn 0.3827 -0.9239 0.0000
vn -0.3827 -0.9239 0.0000
vn -0.9239 -0.3827 0.0000
vn -0.9239 0.3827 0.0000
vn -0.3827 0.9239 0.0000
vn 0.3827 0.9239 -0.0000
vn 0.9239 0.3827 -0.0000
vn 0.7071 0.7071 -0.0000
vn -0.7071 0.7071 0.0000
usemtl Material.001
s off
f 8/1/1 322/2/1 325/3/1 56/4/1
f 93/5/2 87/6/2 319/7/2 320/8/2 26/9/2
f 49/10/3 54/11/3 72/12/3 70/13/3
f 8/1/1 6/14/1 318/15/1 322/2/1
f 5/16/3 7/17/3 3/18/3 1/19/3
f 323/20/1 319/21/1 87/22/1 90/23/1
f 21/24/1 22/25/1 6/14/1 8/1/1
f 321/26/4 28/27/4 60/28/4 326/29/4
f 28/27/4 321/26/4 317/30/4 25/31/4
f 277/32/4 131/33/4 138/34/4 303/35/4
f 89/36/3 88/37/3 10/38/3 11/39/3
f 90/23/1 87/22/1 9/40/1 12/41/1
f 77/42/2 73/43/2 9/44/2 30/45/2
f 17/46/5 7/47/5 5/16/5 18/48/5
f 88/49/6 91/50/6 19/51/6 10/52/6
f 1/53/2 13/54/2 18/55/2 5/56/2
f 24/57/3 17/46/3 18/48/3 23/58/3
f 3/59/4 16/60/4 13/61/4 1/62/4
f 7/47/6 17/46/6 16/63/6 3/64/6
f 2/65/5 14/66/5 15/67/5 4/68/5
f 89/69/2 92/70/2 14/71/2 2/72/2
f 76/73/3 24/57/3 23/58/3 74/74/3
f 10/52/4 19/51/4 20/75/4 11/39/4
f 29/76/2 6/77/2 22/78/2 31/79/2
f 276/80/3 274/81/3 288/82/3 286/83/3
f 75/84/1 73/85/1 22/25/1 21/24/1
f 21/24/1 8/1/1 56/4/1 57/86/1
f 128/87/2 29/76/2 31/79/2 130/88/2
f 140/89/2 77/42/2 30/45/2 129/90/2
f 145/91/4 34/92/4 63/93/4 154/94/4
f 123/95/2 25/96/2 29/76/2 128/87/2
f 283/97/1 280/98/1 307/99/1 313/100/1
f 126/101/4 28/27/4 25/31/4 123/102/4
f 90/23/1 12/41/1 58/103/1 98/104/1
f 124/105/5 26/106/5 27/107/5 125/108/5
f 142/109/2 93/5/2 26/9/2 124/110/2
f 95/111/2 94/112/2 32/113/2 39/114/2
f 39/115/5 32/116/5 33/117/5 40/118/5
f 48/119/3 49/10/3 70/13/3 69/120/3
f 41/121/4 34/92/4 38/122/4 45/123/4
f 81/124/3 51/125/3 71/126/3 86/127/3
f 45/128/2 38/129/2 35/130/2 42/131/2
f 125/108/5 27/107/5 59/132/5 134/133/5
f 79/134/2 78/135/2 36/136/2 43/137/2
f 42/131/2 35/130/2 37/138/2 44/139/2
f 75/84/1 21/24/1 57/86/1 82/140/1
f 167/141/2 42/131/2 44/139/2 169/142/2
f 176/143/2 79/134/2 43/137/2 168/144/2
f 34/92/4 41/121/4 65/145/4 63/93/4
f 163/146/2 45/128/2 42/131/2 167/141/2
f 282/147/4 150/148/4 152/149/4 295/150/4
f 166/151/4 41/121/4 45/123/4 163/152/4
f 199/153/4 48/154/4 69/155/4 204/156/4
f 164/157/5 39/115/5 40/118/5 165/158/5
f 178/159/2 95/111/2 39/114/2 164/160/2
f 146/161/5 279/162/5 291/163/5 151/164/5
f 279/162/5 146/161/5 155/165/5 308/166/5
f 273/167/5 127/168/5 132/169/5 289/170/5
f 92/70/2 96/171/2 46/172/2 14/71/2
f 14/66/5 46/173/5 47/174/5 15/67/5
f 17/46/6 49/10/6 48/119/6 16/63/6
f 16/60/4 48/154/4 55/175/4 13/61/4
f 24/57/6 54/11/6 49/10/6 17/46/6
f 13/54/2 55/176/2 50/177/2 18/55/2
f 91/50/6 97/178/6 51/125/6 19/51/6
f 74/179/2 80/180/2 52/181/2 20/182/2
f 18/55/2 50/177/2 53/183/2 23/184/2
f 76/73/6 81/124/6 54/11/6 24/57/6
f 83/185/6 82/186/6 57/187/6 305/188/6 304/189/6
f 136/190/6 297/191/6 300/192/6 60/193/6 135/194/6
f 99/195/6 98/196/6 58/197/6 61/198/6
f 139/199/6 83/185/6 304/189/6 303/200/6 138/201/6
f 309/202/6 308/203/6 155/204/6 154/205/6 63/206/6
f 141/207/6 99/195/6 61/198/6 137/208/6
f 59/209/6 327/210/6 328/211/6 98/196/6 99/195/6
f 67/212/6 314/213/6 313/214/6 307/215/6 310/216/6 66/217/6
f 84/218/6 158/219/6 157/220/6 312/221/6 315/222/6
f 160/223/3 156/224/3 179/225/3 187/226/3
f 175/227/6 85/228/6 67/212/6 174/229/6
f 177/230/4 101/231/4 183/232/4 190/233/4
f 246/234/4 174/229/4 264/235/4 271/236/4
f 172/237/6 66/217/6 65/238/6 171/239/6
f 323/20/1 90/23/1 98/104/1 328/240/1
f 27/107/5 324/241/5 327/242/5 59/132/5
f 165/158/5 40/118/5 64/243/5 170/244/5
f 97/178/3 47/245/3 68/246/3 102/247/3
f 40/118/5 33/117/5 62/248/5 64/243/5
f 156/224/3 158/219/3 186/249/3 179/225/3
f 100/250/4 160/223/4 187/226/4 181/251/4
f 137/208/6 61/198/6 83/185/6 139/199/6
f 61/198/6 58/197/6 82/186/6 83/185/6
f 19/51/6 51/125/6 81/124/6 76/73/6
f 23/184/2 53/183/2 80/180/2 74/179/2
f 169/142/2 44/139/2 79/134/2 176/143/2
f 12/41/1 75/84/1 82/140/1 58/103/1
f 44/139/2 37/138/2 78/135/2 79/134/2
f 54/11/3 81/124/3 86/127/3 72/12/3
f 130/88/2 31/79/2 77/42/2 140/89/2
f 12/41/1 9/40/1 73/85/1 75/84/1
f 19/51/3 76/73/3 74/74/3 20/75/3
f 31/79/2 22/78/2 73/43/2 77/42/2
f 51/125/3 97/178/3 102/247/3 71/126/3
f 170/252/6 64/253/6 101/231/6 177/230/6
f 64/253/6 62/254/6 100/250/6 101/231/6
f 134/255/6 59/209/6 99/195/6 141/207/6
f 15/256/6 47/245/6 97/178/6 91/50/6
f 20/182/2 52/181/2 96/171/2 92/70/2
f 168/144/2 43/137/2 95/111/2 178/159/2
f 43/137/2 36/136/2 94/112/2 95/111/2
f 129/90/2 30/45/2 93/5/2 142/109/2
f 300/192/6 299/257/6 56/258/6 325/259/6 326/260/6 60/193/6
f 11/261/2 20/182/2 92/70/2 89/69/2
f 4/262/6 15/256/6 91/50/6 88/49/6
f 26/106/5 320/263/5 324/241/5 27/107/5
f 2/264/3 4/265/3 88/37/3 89/36/3
f 30/45/2 9/44/2 87/6/2 93/5/2
f 148/266/2 109/267/2 122/268/2 161/269/2
f 153/270/6 114/271/6 121/272/6 160/223/6
f 149/273/2 110/274/2 120/275/2 159/276/2
f 156/224/6 117/277/6 119/278/6 158/219/6
f 155/204/6 116/279/6 115/280/6 154/205/6
f 160/223/6 121/272/6 117/277/6 156/224/6
f 158/219/6 119/278/6 118/281/6 157/220/6
f 150/148/4 111/282/4 113/283/4 152/149/4
f 131/33/4 111/282/4 118/284/4 138/34/4
f 144/285/5 105/286/5 114/287/5 153/288/5
f 161/269/2 122/268/2 104/289/2 143/290/2
f 143/291/5 104/292/5 105/286/5 144/285/5
f 145/91/4 106/293/4 103/294/4 162/295/4
f 127/168/5 107/296/5 112/297/5 132/169/5
f 162/298/2 103/299/2 108/300/2 147/301/2
f 126/101/4 106/293/4 115/302/4 135/303/4
f 159/276/2 120/275/2 109/267/2 148/266/2
f 147/301/2 108/300/2 110/274/2 149/273/2
f 146/161/5 107/296/5 116/304/5 155/165/5
f 28/27/4 126/101/4 135/303/4 60/28/4
f 127/168/5 273/167/5 297/305/5 136/306/5
f 131/33/4 277/32/4 285/307/4 133/308/4
f 109/267/2 129/90/2 142/109/2 122/268/2
f 114/271/6 134/255/6 141/207/6 121/272/6
f 110/274/2 130/88/2 140/89/2 120/275/2
f 141/207/1 137/208/1 191/309/1 195/310/1
f 116/279/6 136/190/6 135/194/6 115/280/6
f 119/278/3 117/277/3 192/311/3 194/312/3
f 119/278/6 139/199/6 138/201/6 118/281/6
f 111/282/4 131/33/4 133/308/4 113/283/4
f 105/286/5 125/108/5 134/133/5 114/287/5
f 122/268/2 142/109/2 124/110/2 104/289/2
f 104/292/5 124/105/5 125/108/5 105/286/5
f 106/293/4 126/101/4 123/102/4 103/294/4
f 103/299/2 123/95/2 128/87/2 108/300/2
f 120/275/2 140/89/2 129/90/2 109/267/2
f 108/300/2 128/87/2 130/88/2 110/274/2
f 107/296/5 127/168/5 136/306/5 116/304/5
f 280/98/1 283/97/1 294/313/1 292/314/1
f 35/130/2 147/301/2 149/273/2 37/138/2
f 78/135/2 159/276/2 148/266/2 36/136/2
f 38/129/2 162/298/2 147/301/2 35/130/2
f 34/92/4 145/91/4 162/295/4 38/122/4
f 32/116/5 143/291/5 144/285/5 33/117/5
f 94/112/2 161/269/2 143/290/2 32/113/2
f 33/117/5 144/285/5 153/288/5 62/248/5
f 302/315/6 305/188/6 57/187/6 56/258/6 299/257/6 298/316/6
f 150/148/4 282/147/4 312/317/4 157/318/4
f 85/228/6 84/218/6 315/222/6 314/213/6 67/212/6
f 158/219/5 84/218/5 184/319/5 186/249/5
f 66/217/6 310/216/6 309/202/6 63/206/6 65/238/6
f 173/320/1 177/230/1 190/233/1 188/321/1
f 37/138/2 149/273/2 159/276/2 78/135/2
f 62/254/6 153/270/6 160/223/6 100/250/6
f 36/136/2 148/266/2 161/269/2 94/112/2
f 111/282/4 150/148/4 157/318/4 118/284/4
f 107/296/5 146/161/5 151/164/5 112/297/5
f 106/293/4 145/91/4 154/94/4 115/302/4
f 228/322/2 168/144/2 178/159/2 258/323/2
f 234/324/6 170/252/6 177/230/6 255/325/6
f 231/326/2 169/142/2 176/143/2 252/327/2
f 243/328/6 173/320/6 175/227/6 249/329/6
f 219/330/5 165/158/5 170/244/5 234/331/5
f 240/332/6 172/237/6 171/239/6 237/333/6
f 205/334/1 207/335/1 268/336/1 266/337/1
f 255/325/6 177/230/6 173/320/6 243/328/6
f 249/329/6 175/227/6 174/229/6 246/234/6
f 258/323/2 178/159/2 164/160/2 216/338/2
f 216/339/5 164/157/5 165/158/5 219/330/5
f 41/121/4 166/151/4 171/340/4 65/145/4
f 222/341/4 166/151/4 163/152/4 215/342/4
f 215/343/2 163/146/2 167/141/2 225/344/2
f 252/327/2 176/143/2 168/144/2 228/322/2
f 225/344/2 167/141/2 169/142/2 231/326/2
f 183/232/6 181/251/6 180/345/6 182/346/6
f 190/233/6 183/232/6 182/346/6 188/321/6
f 188/321/6 182/346/6 185/347/6 189/348/6
f 182/346/6 180/345/6 184/319/6 185/347/6
f 181/251/6 187/226/6 179/225/6 180/345/6
f 180/345/6 179/225/6 186/249/6 184/319/6
f 84/218/5 85/228/5 185/347/5 184/319/5
f 85/228/5 175/227/5 189/348/5 185/347/5
f 175/227/1 173/320/1 188/321/1 189/348/1
f 101/231/4 100/250/4 181/251/4 183/232/4
f 192/311/6 191/309/6 193/349/6 194/312/6
f 196/350/6 195/310/6 191/309/6 192/311/6
f 137/208/1 139/199/1 193/349/1 191/309/1
f 121/272/5 141/207/5 195/310/5 196/350/5
f 139/199/4 119/278/4 194/312/4 193/349/4
f 117/277/3 121/272/3 196/350/3 192/311/3
f 50/177/2 200/351/2 202/352/2 53/183/2
f 80/180/2 209/353/2 201/354/2 52/181/2
f 55/176/2 212/355/2 200/351/2 50/177/2
f 48/154/4 199/153/4 212/356/4 55/175/4
f 46/173/5 197/357/5 198/358/5 47/174/5
f 96/171/2 211/359/2 197/360/2 46/172/2
f 86/127/6 208/361/6 207/335/6 72/12/6
f 102/247/6 210/362/6 206/363/6 71/126/6
f 72/12/6 207/335/6 205/334/6 70/13/6
f 70/13/6 205/334/6 204/364/6 69/120/6
f 47/174/5 198/358/5 203/365/5 68/366/5
f 71/126/6 206/363/6 208/361/6 86/127/6
f 53/183/2 202/352/2 209/353/2 80/180/2
f 68/246/6 203/367/6 210/362/6 102/247/6
f 52/181/2 201/354/2 211/359/2 96/171/2
f 224/368/4 199/153/4 204/156/4 239/369/4
f 166/151/4 222/341/4 237/370/4 171/340/4
f 222/341/4 223/371/4 238/372/4 237/370/4
f 223/371/4 224/368/4 239/369/4 238/372/4
f 200/351/2 227/373/2 233/374/2 202/352/2
f 227/373/2 226/375/2 232/376/2 233/374/2
f 226/375/2 225/344/2 231/326/2 232/376/2
f 209/353/2 254/377/2 230/378/2 201/354/2
f 254/377/2 253/379/2 229/380/2 230/378/2
f 253/379/2 252/327/2 228/322/2 229/380/2
f 212/355/2 213/381/2 227/373/2 200/351/2
f 213/381/2 214/382/2 226/375/2 227/373/2
f 214/382/2 215/343/2 225/344/2 226/375/2
f 199/153/4 224/368/4 213/383/4 212/356/4
f 224/368/4 223/371/4 214/384/4 213/383/4
f 223/371/4 222/341/4 215/342/4 214/384/4
f 197/357/5 218/385/5 221/386/5 198/358/5
f 218/385/5 217/387/5 220/388/5 221/386/5
f 217/387/5 216/339/5 219/330/5 220/388/5
f 211/359/2 260/389/2 218/390/2 197/360/2
f 260/389/2 259/391/2 217/392/2 218/390/2
f 259/391/2 258/323/2 216/338/2 217/392/2
f 208/361/6 251/393/6 248/394/6 207/335/6
f 251/393/6 250/395/6 247/396/6 248/394/6
f 250/395/6 249/329/6 246/234/6 247/396/6
f 210/362/6 257/397/6 245/398/6 206/363/6
f 257/397/6 256/399/6 244/400/6 245/398/6
f 256/399/6 255/325/6 243/328/6 244/400/6
f 67/212/3 66/217/3 262/401/3 261/402/3
f 207/335/4 248/394/4 267/403/4 268/336/4
f 241/404/5 242/405/5 265/406/5 270/407/5
f 205/334/6 242/405/6 239/408/6 204/364/6
f 242/405/6 241/404/6 238/409/6 239/408/6
f 241/404/6 240/332/6 237/333/6 238/409/6
f 198/358/5 221/386/5 236/410/5 203/365/5
f 221/386/5 220/388/5 235/411/5 236/410/5
f 220/388/5 219/330/5 234/331/5 235/411/5
f 206/363/6 245/398/6 251/393/6 208/361/6
f 245/398/6 244/400/6 250/395/6 251/393/6
f 244/400/6 243/328/6 249/329/6 250/395/6
f 202/352/2 233/374/2 254/377/2 209/353/2
f 233/374/2 232/376/2 253/379/2 254/377/2
f 232/376/2 231/326/2 252/327/2 253/379/2
f 203/367/6 236/412/6 257/397/6 210/362/6
f 236/412/6 235/413/6 256/399/6 257/397/6
f 235/413/6 234/324/6 255/325/6 256/399/6
f 201/354/2 230/378/2 260/389/2 211/359/2
f 230/378/2 229/380/2 259/391/2 260/389/2
f 229/380/2 228/322/2 258/323/2 259/391/2
f 264/235/6 261/402/6 262/401/6 263/414/6
f 271/236/7 264/235/7 263/414/7 269/415/7
f 268/336/8 267/403/8 265/406/8 266/337/8
f 267/403/9 272/416/9 270/407/9 265/406/9
f 272/416/10 271/236/10 269/415/10 270/407/10
f 242/405/5 205/334/5 266/337/5 265/406/5
f 172/237/5 240/332/5 269/415/5 263/414/5
f 247/396/4 246/234/4 271/236/4 272/416/4
f 174/229/4 67/212/4 261/402/4 264/235/4
f 240/332/5 241/404/5 270/407/5 269/415/5
f 248/394/4 247/396/4 272/416/4 267/403/4
f 66/217/5 172/237/5 263/414/5 262/401/5
f 297/191/6 301/417/6 298/418/6 299/419/6 300/192/6
f 302/315/6 306/420/6 303/421/6 304/422/6 305/188/6
f 307/99/6 311/423/6 308/424/6 309/425/6 310/426/6
f 312/221/6 316/427/6 313/428/6 314/429/6 315/222/6
f 297/305/11 273/167/11 275/430/11 301/431/11
f 301/432/12 275/433/12 274/81/12 298/434/12
f 302/435/13 276/80/13 278/436/13 306/437/13
f 306/438/14 278/439/14 277/32/14 303/35/14
f 312/317/15 282/147/15 284/440/15 316/441/15
f 316/442/16 284/443/16 283/97/16 313/100/16
f 280/98/17 292/314/17 293/444/17 281/445/17
f 281/446/18 293/447/18 291/163/18 279/162/18
f 288/82/12 274/81/12 275/433/12 290/448/12
f 290/449/11 275/430/11 273/167/11 289/170/11
f 282/147/15 295/150/15 296/450/15 284/440/15
f 284/443/16 296/451/16 294/313/16 283/97/16
f 276/80/13 286/83/13 287/452/13 278/436/13
f 278/439/14 287/453/14 285/307/14 277/32/14
f 279/162/18 308/166/18 311/454/18 281/446/18
f 281/445/17 311/455/17 307/99/17 280/98/17
f 274/81/3 276/80/3 302/435/3 298/434/3
f 319/21/19 323/20/19 324/456/19 320/457/19
f 322/2/20 318/15/20 317/458/20 321/459/20
f 321/26/20 326/29/20 325/460/20 322/461/20
f 327/242/19 324/241/19 323/462/19 328/463/19
f 25/96/2 317/464/2 318/465/2 6/77/2 29/76/2
usemtl Material.002
f 332/466/6 329/467/6 330/468/6 331/469/6
usemtl Material.003
f 133/470/6 285/471/6 287/472/6 286/473/6 288/474/6 290/475/6 289/476/6 132/477/6
f 294/478/6 296/479/6 295/480/6 152/481/6 151/482/6 291/483/6 293/484/6 292/485/6
f 152/481/6 113/486/6 112/487/6 151/482/6
f 113/486/6 133/470/6 132/477/6 112/487/6
